<svg width="79" height="56" viewBox="0 0 79 56" fill="none" xmlns="http://www.w3.org/2000/svg">
<g clip-path="url(#clip0_2527_1849)">
<path d="M18.2695 41.7684L21.4309 28.8087H15.739L12.0897 41.7684H2.48669L17.3511 0.825897H34.0675L28.5635 41.7684H18.2695ZM21.3091 9.52389L16.6954 22.1485H22.7143L25.1039 9.52389H21.3091Z" fill="#23211E"/>
<path d="M39.8325 6.98746C39.8325 4.8668 40.3101 3.32601 41.2654 2.36508C42.2548 1.37102 43.7729 0.873993 45.8199 0.873993C48.6857 0.873993 50.1186 2.1 50.1186 4.55202C50.1186 6.63954 49.6239 8.16376 48.6346 9.12472C47.6451 10.0856 46.127 10.5661 44.08 10.5661C41.2483 10.5661 39.8325 9.37324 39.8325 6.98746Z" fill="#FA9E22"/>
<path d="M67.7915 1.08646C71.476 1.08646 74.2565 1.86513 76.1329 3.4225C77.6 4.64851 78.3334 6.35497 78.3334 8.5419C78.3334 9.2709 78.2481 10.0661 78.0775 10.9277L71.9792 45.0198C71.3311 49.0866 69.8129 51.5718 67.4248 53.0297C65.0708 54.4876 61.915 55.2166 57.9574 55.2166C54 55.2166 51.1001 54.4876 49.2578 53.0297C47.8932 51.9362 47.2108 50.296 47.2108 48.1091C47.2108 47.347 47.2961 45.9476 47.4667 45.0198L53.565 10.9277C54.759 4.36685 59.5012 1.08646 67.7915 1.08646ZM69.1732 11.9217C69.2414 11.5903 69.2755 11.1761 69.2755 10.6792C69.2755 10.1489 69.0538 9.56907 68.6103 8.93953C68.1667 8.30996 67.382 7.99517 66.2562 7.99517C65.1645 7.99517 64.2434 8.35967 63.4928 9.08867C62.7423 9.78449 62.2646 10.7288 62.0599 11.9217L56.3711 43.9263C56.3028 44.2577 56.2687 44.6884 56.2687 45.2186C56.2687 45.7156 56.4904 46.8168 56.9339 47.4132C57.3775 48.0097 58.1451 48.3079 59.2368 48.3079C60.3627 48.3079 61.4722 48.1652 62.2227 46.8817C62.9732 46.1196 63.2796 44.9866 63.4843 43.9263L69.1732 11.9217Z" fill="#23211E"/>
<path fill-rule="evenodd" clip-rule="evenodd" d="M32.3938 55.3976L32.3958 55.4287L0.404358 55.3142L10.3944 46.7597H27.861L27.8786 46.7045C27.9019 46.7234 27.9259 46.7418 27.9505 46.7597H31.7454C32.1759 46.3967 32.4618 45.8429 32.603 45.0986L38.7445 11.3733H48.7837L42.4059 46.4177C41.8941 49.1708 40.7918 51.3503 39.0989 52.9563C37.612 54.4348 35.377 55.2486 32.3938 55.3976Z" fill="#23211E"/>
</g>
<defs>
<clipPath id="clip0_2527_1849">
<rect width="79" height="55" fill="white" transform="translate(0 0.5)"/>
</clipPath>
</defs>
</svg>
